# xmcd CD database file
#
# Track frame offsets:
#	150
#	24757
#	51191
#	79381
#	104990
#	126105
#	157147
#	193254
#	220646
#
# Disc length: 3273 seconds
#
# Revision: 0
# Processed by: cddbd v1.5.1PL2 Copyright (c) Steve Scherf et al.
# Submitted via: CDex 1.51
#
DISCID=800cc709
DTITLE=Nadama - Love is
DYEAR=2003
DGENRE=New Age
TTITLE0=Gift of Love
TTITLE1=Love in the Air
TTITLE2=Sweet Surrender
TTITLE3=Rose of the Heart
TTITLE4=Dancing in your Garden
TTITLE5=Deeper into Love
TTITLE6=Love Is
TTITLE7=In the Rain
TTITLE8=Together Alone
EXTD=YEAR: 2003
EXTT0=
EXTT1=
EXTT2=
EXTT3=
EXTT4=
EXTT5=
EXTT6=
EXTT7=
EXTT8=
PLAYORDER=
